<?xml version="1.0" encoding="utf-8"?>
<!-- Generator: Adobe Illustrator 27.5.0, SVG Export Plug-In . SVG Version: 6.00 Build 0)  -->
<svg version="1.1" xmlns="http://www.w3.org/2000/svg" xmlns:xlink="http://www.w3.org/1999/xlink" x="0px" y="0px"
	 viewBox="0 0 2000 2000" style="enable-background:new 0 0 2000 2000;" xml:space="preserve">
<g id="BACKGROUND">
	<rect style="fill:#FFFFFF;" width="2000" height="2000"/>
</g>
<g id="OBJECTS">
	<g>
		<g>
			<path style="fill:#CECED2;" d="M402.5,878.507h-64.584c-1.261,0-2.283-1.022-2.283-2.283c0-1.261,1.022-2.283,2.283-2.283H402.5
				c1.261,0,2.283,1.022,2.283,2.283C404.783,877.485,403.761,878.507,402.5,878.507z"/>
			<path style="fill:#CECED2;" d="M310.831,878.507h-35.416c-1.261,0-2.283-1.022-2.283-2.283c0-1.261,1.022-2.283,2.283-2.283
				h35.416c1.261,0,2.283,1.022,2.283,2.283C313.114,877.485,312.092,878.507,310.831,878.507z"/>
			<path style="fill:#CECED2;" d="M402.5,918.507H275.415c-1.261,0-2.283-1.022-2.283-2.283c0-1.261,1.022-2.283,2.283-2.283H402.5
				c1.261,0,2.283,1.022,2.283,2.283C404.783,917.485,403.761,918.507,402.5,918.507z"/>
			<path style="fill:#CECED2;" d="M402.5,958.507h-31.25c-1.261,0-2.283-1.022-2.283-2.283c0-1.261,1.022-2.283,2.283-2.283h31.25
				c1.261,0,2.283,1.022,2.283,2.283C404.783,957.485,403.761,958.507,402.5,958.507z"/>
			<path style="fill:#CECED2;" d="M346.249,958.507h-70.834c-1.261,0-2.283-1.022-2.283-2.283c0-1.261,1.022-2.283,2.283-2.283
				h70.834c1.261,0,2.283,1.022,2.283,2.283C348.531,957.485,347.51,958.507,346.249,958.507z"/>
		</g>
		<g>
			<path style="fill:#CECED2;" d="M1806.436,706.223h-63.352c-1.248,0-2.261-1.012-2.261-2.261s1.013-2.261,2.261-2.261h63.352
				c1.248,0,2.261,1.012,2.261,2.261S1807.683,706.223,1806.436,706.223z"/>
			<path style="fill:#CECED2;" d="M1716.516,706.223h-34.744c-1.248,0-2.261-1.012-2.261-2.261s1.013-2.261,2.261-2.261h34.744
				c1.248,0,2.261,1.012,2.261,2.261S1717.764,706.223,1716.516,706.223z"/>
			<path style="fill:#CECED2;" d="M1806.436,746.223h-124.663c-1.248,0-2.261-1.012-2.261-2.261s1.013-2.261,2.261-2.261h124.663
				c1.248,0,2.261,1.012,2.261,2.261S1807.683,746.223,1806.436,746.223z"/>
			<path style="fill:#CECED2;" d="M1806.436,786.223h-30.654c-1.248,0-2.261-1.012-2.261-2.261s1.013-2.261,2.261-2.261h30.654
				c1.248,0,2.261,1.012,2.261,2.261S1807.683,786.223,1806.436,786.223z"/>
			<path style="fill:#CECED2;" d="M1751.257,786.223h-69.485c-1.248,0-2.261-1.012-2.261-2.261s1.013-2.261,2.261-2.261h69.485
				c1.248,0,2.261,1.012,2.261,2.261S1752.505,786.223,1751.257,786.223z"/>
		</g>
		<g>
			
				<ellipse transform="matrix(0.7071 -0.7071 0.7071 0.7071 214.4735 1257)" style="fill:#FF5C33;" cx="1624.57" cy="369.608" rx="99.37" ry="99.37"/>
			<polygon style="fill:#0A0A20;" points="1647.334,398.704 1622.278,369.825 1654.629,314.034 1657.871,315.914 1626.863,369.391 
				1650.166,396.245 			"/>
		</g>
		<g>
			<g>
				<path style="fill:#0A0A20;" d="M623.025,766.224L623.025,766.224c-7.164,0-13.025-5.861-13.025-13.025V613.18
					c0-7.164,5.861-13.025,13.025-13.025h0c7.164,0,13.025,5.861,13.025,13.025V753.2
					C636.05,760.363,630.189,766.224,623.025,766.224z"/>
				<path style="fill:#0A0A20;" d="M624.764,962.474h-3.477c-6.207,0-11.286-5.079-11.286-11.286v-102.12
					c0-6.207,5.079-11.286,11.286-11.286h3.477c6.208,0,11.286,5.079,11.286,11.286v102.12
					C636.05,957.396,630.971,962.474,624.764,962.474z"/>
				<path style="fill:#CECED2;" d="M1291.898,1726.224H684.477c-33.575,0-60.792-27.218-60.792-60.792V397.017
					c0-33.575,27.218-60.792,60.792-60.792h607.421c33.575,0,60.792,27.218,60.792,60.792v1268.415
					C1352.69,1699.007,1325.473,1726.224,1291.898,1726.224z"/>
				<path style="fill:#FFFFFF;" d="M1280.181,1671.745H696.194c-20.236,0-36.641-16.405-36.641-36.641V443.757
					c0-20.236,16.405-36.641,36.641-36.641h583.986c20.236,0,36.641,16.405,36.641,36.641v1191.348
					C1316.822,1655.34,1300.417,1671.745,1280.181,1671.745z"/>
				<path style="fill:#FFFFFF;" d="M1026.18,380.391H908.526c-5.716,0-10.349-4.634-10.349-10.349l0,0
					c0-5.716,4.633-10.349,10.349-10.349h117.653c5.716,0,10.349,4.634,10.349,10.349l0,0
					C1036.529,375.758,1031.895,380.391,1026.18,380.391z"/>
				<path style="fill:#FFFFFF;" d="M1108.75,370.049c0,8.15-6.25,14.85-14.225,15.55c-0.45,0.05-0.925,0.075-1.4,0.075
					c-3.625,0-6.925-1.225-9.575-3.3c-2.7-2.075-4.7-5.075-5.55-8.5c-0.325-1.225-0.5-2.5-0.5-3.825
					c0-8.325,6.525-15.15,14.75-15.575c0.275-0.05,0.575-0.05,0.875-0.05c4.3,0,8.15,1.725,10.975,4.5
					c2.05,2.025,3.525,4.6,4.2,7.475C1108.6,367.574,1108.75,368.799,1108.75,370.049z"/>
			</g>
			<g>
				<g>
					
						<ellipse transform="matrix(0.2361 -0.9717 0.9717 0.2361 92.7734 1069.8079)" style="fill:#007BFF;" cx="726.853" cy="475.894" rx="10.217" ry="10.217"/>
					
						<ellipse transform="matrix(0.1602 -0.9871 0.9871 0.1602 174.998 1157.4738)" style="fill:#007BFF;" cx="767.722" cy="475.894" rx="10.217" ry="10.217"/>
					
						<ellipse transform="matrix(0.7071 -0.7071 0.7071 0.7071 -99.6769 711.1469)" style="fill:#007BFF;" cx="808.592" cy="475.894" rx="10.217" ry="10.217"/>
				</g>
				<g>
					<circle style="fill:#007BFF;" cx="1238.21" cy="461.446" r="9.854"/>
					<path style="fill:#007BFF;" d="M1257.545,498.5c0-10.5-8.512-19.012-19.012-19.012c-10.5,0-19.012,8.512-19.012,19.012
						c0,0.683,0.04,1.357,0.11,2.022h37.803C1257.505,499.858,1257.545,499.184,1257.545,498.5z"/>
				</g>
				<path style="fill:#C0D8FF;" d="M1100.688,992.891h-225c-8.25,0-15-6.75-15-15v0c0-8.25,6.75-15,15-15h225c8.25,0,15,6.75,15,15
					v0C1115.688,986.141,1108.938,992.891,1100.688,992.891z"/>
				<g>
					
						<ellipse transform="matrix(0.2314 -0.9729 0.9729 0.2314 -614.4647 1711.3694)" style="fill:#C0D8FF;" cx="775.833" cy="1244.558" rx="36.667" ry="36.667"/>
					<g>
						<rect x="885.834" y="1220.808" style="fill:#007BFF;" width="329.999" height="2.5"/>
						<rect x="885.834" y="1243.308" style="fill:#007BFF;" width="257.499" height="2.5"/>
						<rect x="885.834" y="1265.808" style="fill:#007BFF;" width="329.999" height="2.5"/>
					</g>
				</g>
				<g>
					<circle style="fill:#C0D8FF;" cx="775.833" cy="1116.224" r="36.667"/>
					<g>
						<rect x="885.834" y="1092.476" style="fill:#007BFF;" width="329.999" height="2.5"/>
						<rect x="885.834" y="1114.976" style="fill:#007BFF;" width="257.499" height="2.5"/>
						<rect x="885.834" y="1137.476" style="fill:#007BFF;" width="329.999" height="2.5"/>
					</g>
					<circle style="fill:#007BFF;" cx="775.833" cy="1116.224" r="15.625"/>
				</g>
				<g>
					<rect x="739.167" y="1352.891" style="fill:#EFF5FF;" width="90" height="90"/>
					<rect x="884.167" y="1352.891" style="fill:#EFF5FF;" width="90" height="90"/>
					<rect x="1029.167" y="1352.891" style="fill:#EFF5FF;" width="90" height="90"/>
					<rect x="1174.167" y="1352.891" style="fill:#EFF5FF;" width="90" height="90"/>
				</g>
				<g>
					<path style="fill:#FF5C33;" d="M1034.867,1587.955h-93.36c-14.869,0-27.034-12.165-27.034-27.034v-8.143
						c0-14.869,12.165-27.034,27.034-27.034h93.36c14.869,0,27.034,12.165,27.034,27.034v8.143
						C1061.902,1575.79,1049.736,1587.955,1034.867,1587.955z"/>
					<g>
						<polygon style="fill:#FFFFFF;" points="998.076,1573.594 996.309,1571.826 1011.287,1556.851 996.309,1541.873 
							998.076,1540.105 1014.822,1556.851 						"/>
						<rect x="962.771" y="1555.601" style="fill:#FFFFFF;" width="50.283" height="2.5"/>
					</g>
				</g>
				<g>
					<polygon style="fill:#007BFF;" points="920.537,560.524 913.962,560.524 881.38,560.524 851.687,560.524 764.025,560.524 
						764.025,786.358 881.38,786.358 881.38,628.757 913.962,628.757 913.962,655.658 960.833,655.658 960.833,560.524 					"/>
					<path style="fill:#007BFF;" d="M1212.351,905H764.025V560.525h448.326V905z M766.525,902.5h443.326V563.025H766.525V902.5z"/>
					<g>
						<path style="fill:#FFFFFF;" d="M1211.1,751.825V903.75H765.275c0,0,0-115.57,0-115.8c0-19.168,25.101-52.566,36.363-67.926
							c15.621-21.307,35.767-41.148,61.526-49.288c72.824-23.013,88.8,43.902,127.661,85.489
							c29.625,31.65,56.425,43.875,98.675,48.325C1128.375,808.649,1170.2,774.974,1211.1,751.825z"/>
						<path style="fill:#007BFF;" d="M1212.351,905H764.025V787.95c0-18.84,22.928-50.049,35.245-66.814l1.36-1.852
							c19.327-26.361,39.659-42.632,62.157-49.74c55.243-17.466,78.263,15.961,102.632,51.345
							c8.129,11.803,16.534,24.009,26.32,34.481c28.479,30.426,55.01,43.418,97.893,47.936c30.02,3.163,62.605-16.996,94.114-36.493
							c8.777-5.431,17.849-11.045,26.741-16.077l1.865-1.056V905z M766.525,902.5h443.326V753.976
							c-8.252,4.73-16.65,9.927-24.79,14.963c-31.87,19.719-64.805,40.117-95.693,36.853c-43.557-4.589-70.513-17.79-99.456-48.713
							c-9.913-10.609-18.372-22.892-26.553-34.772c-23.828-34.601-46.333-67.279-99.818-50.38
							c-21.974,6.945-41.893,22.917-60.895,48.834l-1.361,1.854c-11.283,15.358-34.761,47.313-34.761,65.334V902.5z"/>
					</g>
				</g>
			</g>
		</g>
		<g>
			<g>
				<g>
					<path style="fill:#FFFFFF;" d="M495.15,1201.004v134.05c0,10.025-8.125,18.125-18.125,18.125H350.75
						c-10.025,0-18.15-8.1-18.15-18.125v-134.575c0-7.1,5.775-12.875,12.9-12.875h136.25
						C489.15,1187.604,495.15,1193.604,495.15,1201.004z"/>
					<path style="fill:#0A0A20;" d="M477.025,1355.054H350.75c-11.041,0-20.024-8.972-20.024-20v-134.575
						c0-8.132,6.628-14.749,14.775-14.749h136.25c8.423,0,15.275,6.851,15.275,15.273v134.05
						C497.025,1346.082,488.053,1355.054,477.025,1355.054z M345.5,1189.48c-6.079,0-11.025,4.934-11.025,10.999v134.575
						c0,8.96,7.301,16.25,16.274,16.25h126.276c8.96,0,16.25-7.29,16.25-16.25v-134.05c0-6.355-5.17-11.523-11.525-11.523H345.5z"/>
				</g>
				<path style="fill:#FF5C33;" d="M498.992,1203.072c0-9.781-7.929-17.71-17.71-17.71h-10.848h-0.112h-28.446h-0.112h-28.446
					h-0.112h-28.446h-0.112h-28.446h-0.112h-16.163c-6.845,0-12.394,5.482-12.394,12.244v52.306c0,7.455,5.815,13.498,12.988,13.498
					h2.693c7.173,0,12.988-6.043,12.988-13.498v-8.844c0-7.455,5.815-13.498,12.988-13.498h2.47c7.173,0,12.988,6.043,12.988,13.498
					l0,0c0,7.455,5.815,13.498,12.988,13.498h2.693c7.173,0,12.988-6.043,12.988-13.498v-14.378c0-7.455,5.815-13.498,12.988-13.498
					h2.47c7.173,0,12.988,6.043,12.988,13.498v15.285c0,7.455,5.815,13.498,12.988,13.498h2.693c7.173,0,12.988-6.043,12.988-13.498
					v-9.641c0-7.455,5.815-13.498,12.988-13.498h2.581c7.173,0,12.988-6.043,12.988-13.498V1203.072z"/>
				<path style="opacity:0.6;fill:#CECED2;" d="M495.15,1321.479v13.575c0,10.025-8.125,18.125-18.125,18.125H350.75
					c-10.025,0-18.15-8.1-18.15-18.125v-76C357.425,1289.954,409.05,1334.154,495.15,1321.479z"/>
			</g>
			<g>
				<g>
					
						<rect x="145.605" y="1547.027" transform="matrix(0.2773 -0.9608 0.9608 0.2773 -1248.4861 1439.2815)" style="fill:#0A0A20;" width="373.726" height="5.001"/>
					
						<rect x="491.557" y="1362.665" transform="matrix(0.9608 -0.2772 0.2772 0.9608 -410.1149 197.6396)" style="fill:#0A0A20;" width="5.001" height="373.726"/>
				</g>
				<path style="fill:#0A0A20;" d="M518.911,1378.531H307.614c-7.691,0-13.983-6.292-13.983-13.983l0,0
					c0-7.691,6.292-13.983,13.983-13.983h211.297c7.691,0,13.983,6.292,13.983,13.983l0,0
					C532.894,1372.238,526.602,1378.531,518.911,1378.531z"/>
			</g>
		</g>
		<g>
			<rect x="217.396" y="464.89" style="fill:#F5F5F6;" width="49.141" height="199.095"/>
			<rect x="266.563" y="518.086" style="fill:#E2E2E4;" width="32.49" height="145.898"/>
			<rect x="299.063" y="518.086" style="fill:#F5F5F6;" width="32.49" height="145.898"/>
			
				<rect x="363.223" y="522.311" transform="matrix(0.8928 -0.4505 0.4505 0.8928 -227.8968 233.0679)" style="fill:#F5F5F6;" width="24.835" height="145.898"/>
			<rect x="194.016" y="663.968" style="fill:#E2E2E4;" width="281.236" height="24.112"/>
		</g>
		<g>
			<g>
				<path style="fill:#0A0A20;" d="M1590.01,1120.41c-0.278-2.629-6.606-64.641,14.446-84.438l2.568,2.729
					c-19.709,18.535-13.352,80.688-13.284,81.313L1590.01,1120.41z"/>
				<path style="fill:#FF8F78;" d="M1619.925,1055.287c-25.525,8.525-29.3-22.2-29.3-22.2s5.65-2.85,15.125,4.25
					c-4.8-13.05-11.15-21.95-19.075-26.825c-7.15-4.375-13.175-10.375-16.625-18l-55.9-123.75
					c19.9-18.025,39.85-34.725,59.875-49.85c4.825,13.325,9.3,27.475,13.375,42.5c3.675,13.5,7.05,27.725,10.1,42.675
					c3.25,15.9,6.125,32.625,8.625,50.2c1.85,13,5.4,25.725,10.475,37.825C1625.675,1013.812,1637.475,1049.437,1619.925,1055.287z"
					/>
				<path style="fill:#0A0A20;" d="M1645.674,1121.772c-7.476-31.758-21.008-58.984-41.37-83.23l2.871-2.412
					c20.747,24.707,34.534,52.439,42.151,84.783L1645.674,1121.772z"/>
				<g>
					<g>
						<path style="fill:#FFFFFF;" d="M1703.05,1134.212v134.575c0,10-8.125,18.125-18.125,18.125H1558.65
							c-10.025,0-18.15-8.125-18.15-18.125v-147.45h149.675C1697.275,1121.337,1703.05,1127.087,1703.05,1134.212z"/>
						<path style="fill:#0A0A20;" d="M1684.924,1288.787H1558.65c-11.042,0-20.024-8.972-20.024-20v-149.324h151.55
							c8.132,0,14.749,6.616,14.749,14.749v134.575C1704.924,1279.814,1695.952,1288.787,1684.924,1288.787z M1542.375,1123.213
							v145.574c0,8.96,7.3,16.25,16.274,16.25h126.274c8.96,0,16.25-7.29,16.25-16.25v-134.575c0-6.064-4.934-10.999-10.999-10.999
							H1542.375z"/>
					</g>
					<path style="opacity:0.6;fill:#CECED2;" d="M1703.05,1250.337v18.45c0,10-8.125,18.125-18.125,18.125H1558.65
						c-10.025,0-18.15-8.125-18.15-18.125v-133.2C1567.775,1171.962,1622.275,1230.012,1703.05,1250.337z"/>
					<path style="fill:#007BFF;" d="M1538.75,1119.087h28.211h0.111h28.1h0.11h28.1h0.111h28.1h0.11h28.1h0.111h15.967
						c6.762,0,12.244,5.482,12.244,12.244v52.306c0,7.455-5.744,13.498-12.83,13.498h-2.661c-7.086,0-12.83-6.043-12.83-13.498
						v-8.844c0-7.455-5.744-13.498-12.83-13.498h-2.44c-7.086,0-12.83,6.043-12.83,13.498l0,0c0,7.455-5.744,13.498-12.83,13.498
						h-2.661c-7.086,0-12.83-6.043-12.83-13.498v-14.378c0-7.455-5.744-13.498-12.83-13.498h-2.44
						c-7.086,0-12.83,6.043-12.83,13.498v15.285c0,7.455-5.744,13.498-12.83,13.498h-2.661c-7.086,0-12.83-6.043-12.83-13.498
						v-9.641c0-7.455-5.744-13.498-12.83-13.498h-2.55c-7.086,0-12.83-6.043-12.83-13.498V1119.087z"/>
				</g>
				<path style="opacity:0.4;fill:#FF5C33;" d="M1597.5,904.087c-1.9-0.3-3.825-0.85-5.675-1.675
					c-12.025-5.25-17.5-19.25-12.25-31.275c1.75-4.025,4.5-7.325,7.825-9.725C1591.075,874.912,1594.45,889.137,1597.5,904.087z"/>
			</g>
			<g>
				<polygon style="fill:#FF8F78;" points="1429.941,694.964 1373.408,708.917 1369.022,693.376 1358.736,656.809 1377.794,647.62 
					1399.84,636.994 				"/>
				<path style="fill:#0A0A20;" d="M1380.417,652.629c0,0-3.75,26.25-14.167,31.25l-7.514-27.07l19.058-9.189L1380.417,652.629z"/>
				<path style="fill:#FF8F78;" d="M1331.585,583.562c0,0-11.817,62.867,6.145,78.938c17.802,15.928,51.995,2.363,67.593-18.907
					s5.672-55.776,5.672-55.776l-50.577-14.18L1331.585,583.562z"/>
				<path style="fill:#0A0A20;" d="M1329.379,593.331c0,0,18.277-7.878,21.113,7.248c2.836,15.126,14.653,20.798,25.052,15.599
					l32.615,0.945c21.271-25.525,11.344-61.291-20.483-67.909C1354.024,541.519,1324.337,569.382,1329.379,593.331z"/>
				<path style="fill:#0A0A20;" d="M1376.332,627.679c0,0,1.891,34.033,33.088,33.718c31.197-0.315,31.512-50.419,31.512-50.419
					l-45.062-29.621L1376.332,627.679z"/>
				<path style="fill:#FF8F78;" d="M1389.705,623.843c-3.67,8.273-11.996,12.605-18.599,9.676
					c-6.602-2.928-8.979-12.009-5.31-20.281c3.67-8.273,11.996-12.605,18.599-9.676
					C1390.997,606.491,1393.374,615.571,1389.705,623.843z"/>
				<path style="fill:#FF5C33;" d="M1420.625,570.025c-2.445,0.551-3.898,1.467-4.99,2.323c-1.07,0.916-1.938,1.795-2.948,2.95
					c-0.28,0.226-0.519,0.555-0.773,0.861l-0.837,0.884c-0.527,0.675-1.177,1.26-1.811,1.955c-1.335,1.341-2.735,2.785-4.891,4.152
					c-0.806-2.359-0.834-4.632-0.365-6.825c0.194-1.105,0.688-2.153,1.132-3.202c0.584-1.017,1.185-2.023,2.049-2.924
					c1.594-1.818,4.111-3.293,6.846-3.506C1416.761,566.518,1419.511,567.71,1420.625,570.025z"/>
			</g>
			<g>
				<g>
					<g>
						<polygon style="fill:#FF8F78;" points="1545.708,1577.769 1578.627,1658.44 1671.212,1658.44 1644.465,1571.466 						"/>
						<g>
							<g>
								<path style="fill:#0A0A20;" d="M1450.425,1703.67c-1.849,5.149-2.876,10.653-2.876,16.342c0,5.385,4.365,9.75,9.75,9.75
									h229.15c4.435,0,8.258-3.189,9.016-7.559c1.119-6.453,1.764-12.81,1.834-19.052
									C1605.446,1710.632,1492.18,1714.02,1450.425,1703.67z"/>
								<path style="fill:#FF5C33;" d="M1697.3,1703.152c0.249-22.214-7.225-42.873-30.426-60.363
									c-31.092,10.784-63.024,10.784-95.797,0l-90.951,31.477c-14.121,4.887-24.844,15.882-29.701,29.404
									C1492.18,1714.02,1605.446,1710.632,1697.3,1703.152z"/>
							</g>
							<path style="fill:#0A0A20;" d="M1658.577,1692.952c-4.087,0.002-7.776-2.59-9.106-6.58c-0.845-2.539-0.591-5.342,0.701-7.686
								s3.521-4.058,6.121-4.7l32.034-7.915l0.898,3.643l-32.034,7.915c-1.609,0.396-2.935,1.414-3.735,2.866
								c-0.798,1.453-0.95,3.118-0.425,4.69c0.911,2.734,3.635,4.382,6.482,3.943l35.591-5.598l0.581,3.706l-35.591,5.598
								C1659.585,1692.915,1659.077,1692.952,1658.577,1692.952z"/>
							<path style="fill:#0A0A20;" d="M1511.111,1686.096c-11.389,0-22.693-3.538-32.08-10.31l2.192-3.042
								c12.869,9.285,29.6,12.043,44.773,7.373l9.187-2.825c16.396-5.046,29.067-17.888,33.894-34.348l0.2-0.684l3.599,1.055
								l-0.2,0.684c-5.183,17.673-18.787,31.46-36.389,36.877l-9.187,2.825C1521.88,1685.308,1516.484,1686.096,1511.111,1686.096z"
								/>
							<path style="fill:#0A0A20;" d="M1542.996,1711.157l-0.017-1.353c0-0.593,0-0.718,3.608-4.551l1.821,1.714
								c-2.573,2.732-3.008,3.303-3.081,3.413l-1.035-0.576l0.049,1.248L1542.996,1711.157z M1544.263,1709.805l0.029,1.25
								L1544.263,1709.805z M1623.411,1707.18l-1.228-1.348l1.846-1.685l1.228,1.348L1623.411,1707.18z M1551.851,1703.354
								l-1.802-1.733l2.344-2.429c0.405-0.415,0.82-0.813,1.25-1.191l1.655,1.87c-0.381,0.339-0.752,0.693-1.111,1.062
								L1551.851,1703.354z M1618.811,1702.139l-1.594-1.748c-0.562-0.613-1.157-1.187-1.782-1.721l1.626-1.899
								c0.701,0.601,1.375,1.25,2,1.934l1.597,1.75L1618.811,1702.139z M1559.153,1697.19l-1.177-2.207
								c1.548-0.825,3.203-1.472,4.915-1.924l0.64,2.417C1562.002,1695.879,1560.53,1696.455,1559.153,1697.19z M1588.074,1697.175
								l-0.269-2.485c1.563-0.168,3.103-0.52,4.578-1.045l0.84,2.354C1591.563,1696.589,1589.829,1696.985,1588.074,1697.175z
								 M1582.788,1697.119c-0.43-0.059-0.859-0.125-1.287-0.205l-3.701-0.696l0.464-2.456l3.699,0.696
								c0.381,0.071,0.767,0.132,1.152,0.181L1582.788,1697.119z M1611.538,1696.055c-1.404-0.713-2.886-1.262-4.404-1.628
								l0.586-2.432c1.709,0.413,3.374,1.03,4.951,1.833L1611.538,1696.055z M1572.886,1695.295l-0.605-0.115
								c-1.223-0.229-2.471-0.347-3.706-0.347l-0.4,0.002l-0.044-2.5l0.466-0.002h0.002c1.367,0,2.769,0.132,4.145,0.391
								l0.606,0.115L1572.886,1695.295z M1597.81,1694.402l-0.576-2.432c1.692-0.4,3.435-0.605,5.183-0.608l0.059,2.5
								C1600.864,1693.865,1599.314,1694.045,1597.81,1694.402z"/>
							
								<rect x="1502.978" y="1665.755" transform="matrix(0.7918 -0.6108 0.6108 0.7918 -707.2875 1266.9667)" style="fill:#0A0A20;" width="3.749" height="10.477"/>
							
								<rect x="1522.264" y="1659.161" transform="matrix(0.8253 -0.5647 0.5647 0.8253 -673.5568 1151.4701)" style="fill:#0A0A20;" width="3.752" height="10.25"/>
							
								<rect x="1538.927" y="1653.346" transform="matrix(0.8119 -0.5839 0.5839 0.8119 -678.2824 1211.5789)" style="fill:#0A0A20;" width="3.751" height="9.797"/>
						</g>
					</g>
					<path style="fill:#003E80;" d="M1678.225,1599.187H1538.3l-79.775-272.35c-5.625-19.25-10.325-38.775-14.05-58.475
						c-0.175-0.975-0.35-1.925-0.525-2.9c-1.925-10.425-3.575-20.875-4.95-31.375l-11.975-91.2l-22.325-170.15l134.875-29
						c37.8,31.525,43.325,96.375,26.45,179L1678.225,1599.187z"/>
					<path style="fill:#007BFF;" d="M1531.382,1572.502l-1.099-2.246c25.515-12.498,51.099-9.287,80.718-5.581
						c18.601,2.332,37.832,4.751,59.778,3.787l0.107,2.5c-22.151,0.955-42.358-1.572-60.198-3.806
						C1581.467,1563.499,1556.228,1560.337,1531.382,1572.502z"/>
				</g>
				<path style="fill:#0A0A20;" d="M1443.95,1265.462c-1.925-10.425-3.575-20.875-4.95-31.375l-11.975-91.2l16.3-14
					C1466.225,1170.662,1458.625,1222.037,1443.95,1265.462z"/>
				<g>
					<g>
						<polygon style="fill:#FF8F78;" points="1328.904,1577.769 1361.823,1658.44 1454.408,1658.44 1427.662,1571.466 						"/>
						<g>
							<g>
								<path style="fill:#0A0A20;" d="M1233.622,1703.67c-1.849,5.149-2.876,10.653-2.876,16.342c0,5.385,4.365,9.75,9.75,9.75
									h229.15c4.435,0,8.258-3.189,9.016-7.559c1.119-6.453,1.764-12.81,1.834-19.052
									C1388.643,1710.632,1275.376,1714.02,1233.622,1703.67z"/>
								<path style="fill:#FF5C33;" d="M1480.497,1703.152c0.249-22.214-7.225-42.873-30.426-60.363
									c-31.092,10.784-63.024,10.784-95.797,0l-90.951,31.477c-14.121,4.887-24.843,15.882-29.701,29.404
									C1275.376,1714.02,1388.643,1710.632,1480.497,1703.152z"/>
							</g>
							<path style="fill:#0A0A20;" d="M1441.775,1692.952c-4.084,0.002-7.776-2.59-9.106-6.58c-0.847-2.542-0.591-5.342,0.701-7.688
								c1.292-2.344,3.521-4.055,6.118-4.697l32.036-7.915l0.898,3.643l-32.036,7.915c-1.606,0.396-2.932,1.414-3.733,2.866
								s-0.952,3.118-0.427,4.69c0.911,2.732,3.613,4.397,6.484,3.943l35.588-5.598l0.581,3.706l-35.588,5.598
								C1442.783,1692.913,1442.275,1692.952,1441.775,1692.952z"/>
							<path style="fill:#0A0A20;" d="M1294.307,1686.096c-11.389,0-22.693-3.538-32.08-10.31l2.192-3.042
								c12.866,9.285,29.6,12.043,44.773,7.373l9.187-2.825c16.399-5.046,29.07-17.888,33.896-34.348l0.2-0.684l3.599,1.055
								l-0.2,0.684c-5.183,17.673-18.787,31.458-36.392,36.877l-9.187,2.825C1305.076,1685.308,1299.68,1686.096,1294.307,1686.096z
								"/>
							<path style="fill:#0A0A20;" d="M1326.191,1711.157l-0.017-1.353c0-0.593,0-0.718,3.608-4.551l1.821,1.714
								c-2.573,2.732-3.008,3.303-3.081,3.413l-1.035-0.576l0.049,1.248L1326.191,1711.157z M1327.458,1709.805l0.029,1.25
								L1327.458,1709.805z M1408.21,1709.683l-3.096-3.689l1.914-1.606l3.096,3.689L1408.21,1709.683z M1335.044,1703.357
								l-1.802-1.733l2.349-2.432c0.4-0.415,0.818-0.813,1.248-1.191l1.655,1.87c-0.381,0.339-0.75,0.693-1.106,1.06
								L1335.044,1703.357z M1401.899,1702.166l-1.521-1.814c-0.527-0.579-1.123-1.152-1.746-1.685l1.626-1.899
								c0.708,0.608,1.382,1.26,2.002,1.938l1.553,1.853L1401.899,1702.166z M1342.349,1697.19l-1.177-2.207
								c1.548-0.825,3.203-1.472,4.915-1.924l0.64,2.417C1345.198,1695.879,1343.726,1696.455,1342.349,1697.19z M1371.272,1697.175
								l-0.269-2.485c1.563-0.168,3.103-0.52,4.578-1.045l0.84,2.354C1374.761,1696.589,1373.027,1696.985,1371.272,1697.175z
								 M1365.984,1697.119c-0.43-0.059-0.859-0.125-1.287-0.205l-3.701-0.696l0.464-2.456l3.699,0.696
								c0.381,0.071,0.767,0.132,1.152,0.181L1365.984,1697.119z M1394.734,1696.055c-1.404-0.713-2.886-1.262-4.404-1.628
								l0.586-2.432c1.709,0.413,3.374,1.03,4.951,1.833L1394.734,1696.055z M1356.084,1695.293l-0.603-0.112
								c-1.226-0.229-2.473-0.347-3.708-0.347l-0.405,0.005l-0.044-2.5l0.449-0.005c1.389,0,2.793,0.132,4.17,0.391l0.601,0.112
								L1356.084,1695.293z M1381.006,1694.402l-0.576-2.432c1.692-0.4,3.435-0.605,5.183-0.608l0.059,2.5
								C1384.06,1693.865,1382.51,1694.045,1381.006,1694.402z"/>
							
								<rect x="1286.175" y="1665.754" transform="matrix(0.7917 -0.6109 0.6109 0.7917 -752.519 1134.9231)" style="fill:#0A0A20;" width="3.749" height="10.479"/>
							
								<rect x="1305.459" y="1659.161" transform="matrix(0.8253 -0.5647 0.5647 0.8253 -711.4351 1029.0382)" style="fill:#0A0A20;" width="3.752" height="10.25"/>
							
								<rect x="1322.122" y="1653.346" transform="matrix(0.8119 -0.5839 0.5839 0.8119 -719.0718 1084.9976)" style="fill:#0A0A20;" width="3.751" height="9.797"/>
						</g>
					</g>
					<path style="fill:#003E80;" d="M1337.888,972.737l-77.741,276.278c-2.789,9.912-4.762,20.036-5.899,30.271v0
						c-2.208,19.874-1.243,39.972,2.859,59.543l54.311,259.108l144.956-1.26l-46.638-297.474l105.88-346.633L1337.888,972.737z"/>
					<path style="fill:#007BFF;" d="M1408.889,1572.278c-15.708,0-30.737-1.687-44.773-3.262
						c-22.485-2.524-41.907-4.702-57.461,0.627l-0.811-2.363c16.086-5.515,35.767-3.306,58.55-0.75
						c26.125,2.937,55.737,6.255,86.541-1.777l0.63,2.417C1436.965,1570.979,1422.666,1572.278,1408.889,1572.278z"/>
				</g>
				<path style="fill:#007BFF;" d="M1411.196,1298.826l-2.393-0.728l43.389-143.105l0.112-0.161
					c13.994-20.183,28.081-71.384,19.021-96.36l2.349-0.854c9.282,25.581-4.956,77.761-19.202,98.477L1411.196,1298.826z"/>
				<g>
					<path style="fill:#007BFF;" d="M1400.54,1096.643c-0.144,0-0.288,0-0.432-0.002c-8.823-0.125-17.173-4.038-22.913-10.737
						c-5.74-6.702-8.325-15.554-7.092-24.292l4.644-32.942h62.542l-6.357,41.853
						C1428.66,1085.483,1415.635,1096.643,1400.54,1096.643z M1376.919,1031.169l-4.341,30.791
						c-1.133,8.027,1.243,16.16,6.516,22.317c5.271,6.155,12.944,9.749,21.047,9.863c14.087,0.313,26.211-10.115,28.318-23.994
						l5.918-38.977H1376.919z"/>
					
						<rect x="1401.926" y="1021.011" transform="matrix(0.0106 -0.9999 0.9999 0.0106 337.843 2442.5259)" style="fill:#007BFF;" width="2.5" height="59.066"/>
				</g>
			</g>
			<g>
				<g>
					<g>
						<rect x="1059.084" y="688.97" style="fill:#0A0A20;" width="22.689" height="71.848"/>
						<path style="fill:#0A0A20;" d="M1014.889,679.517v20.798h111.08v-20.798C1095.837,679.517,1040.801,679.517,1014.889,679.517z
							"/>
						<path style="fill:#E2E2E4;" d="M1125.969,608.615h-111.08v70.902c25.912,0,80.948,0,111.08,0V608.615z"/>
					</g>
					<path style="fill:#007BFF;" d="M1125.889,608.615h-18.513h-0.073h-18.44h-0.073h-18.44h-0.073h-18.44h-0.073h-18.44h-0.073
						h-18.513v43.693c0,5.046,3.77,9.137,8.42,9.137h1.746c4.65,0,8.42-4.091,8.42-9.137v-5.987c0-5.046,3.77-9.136,8.42-9.136
						h1.601c4.65,0,8.42,4.091,8.42,9.136l0,0c0,5.046,3.77,9.136,8.42,9.136h1.746c4.65,0,8.42-4.09,8.42-9.136v-9.732
						c0-5.046,3.77-9.136,8.42-9.136h1.601c4.65,0,8.42,4.091,8.42,9.136v10.346c0,5.046,3.77,9.136,8.42,9.136h1.746
						c4.65,0,8.42-4.091,8.42-9.136v-6.526c0-5.046,3.77-9.137,8.42-9.137h1.674c4.65,0,8.42-4.091,8.42-9.136V608.615z"/>
				</g>
				<path style="fill:#4D4DFF;" d="M1547.075,967.162l-220.975,22.6c-4.525,0.425-8-3.225-8-7.275c0-1.125,0.275-2.3,0.85-3.4
					c4.125-7.8,5.575-16.725,4.175-25.425l-10.275-64.225l-8.1-50.45l-5.925-37.05l215.225-36.875l43.3,187.725
					C1558.95,959.687,1554.125,966.437,1547.075,967.162z"/>
				<polygon style="fill:#0A0A20;" points="1339.15,833.462 1312.85,889.437 1304.75,838.987 				"/>
				<path style="fill:#4D4DFF;" d="M1535.39,740.465c-25.023-37.509-68.793-58.413-113.678-54.124
					c-18.481,1.766-37.728,4.987-58,10.198c-58.113,14.939-110.183,47.538-149.694,92.694l-2.632,3.008
					c16.861,26.919,32.031,60.503,45.683,100.06c29.848-16.428,57.389-35.813,82.08-58.847l149.367-21.428l25.63,56.725
					c19.906-18.019,39.865-34.703,59.885-49.838C1562.983,788.467,1550.047,762.436,1535.39,740.465z"/>
				<g>
					<path style="fill:#FF8F78;" d="M1257.075,892.312c-13.975,7.675-28.4,14.775-43.35,21.175l-8.925,2.675
						c-1.2,0.35-2.4,0.675-3.6,0.95c-15.7,3.7-32.325,1.1-45.725-7.575c-2.175-1.4-4.25-2.95-6.225-4.675
						c-25.775-22.375-48.025-60.775-72.275-98.5c0,0-46.5-34.2-11.975-65.875c5.2,0,8.025,4.725,8.975,3.325
						c0.95-1.425-0.95-11.35,1.9-11.35c2.825,0,27.875,23.475,33.55,47.275c20.475,8.975,66.175,53.4,66.175,53.4l35.775-40.9
						C1228.25,819.162,1243.425,852.737,1257.075,892.312z"/>
					<path style="opacity:0.4;fill:#FF5C33;" d="M1201.2,917.112c-15.7,3.7-32.325,1.1-45.725-7.575
						c1.175-2.875,2.9-5.55,5.225-7.875c9.275-9.275,24.325-9.275,33.6,0C1198.6,905.962,1200.9,911.512,1201.2,917.112z"/>
				</g>
				
					<rect x="1519.166" y="769.325" transform="matrix(0.9507 -0.3102 0.3102 0.9507 -176.5638 511.6559)" style="fill:#0A0A20;" width="2.501" height="83.274"/>
			</g>
			<path style="fill:#0A0A20;" d="M1535.253,704.598c1.267-4.585-1.379-9.913-5.798-11.675c-2.455-0.979-5.261-0.947-7.605-2.169
				c-5.362-2.796-5.671-10.378-4.213-16.247c1.458-5.869,3.921-12.137,1.588-17.716c-2.7-6.457-10.449-8.841-17.258-10.462
				c-11.506-2.739-23.011-5.478-34.517-8.216c-1.991-0.474-4.135-1.042-5.405-2.646c-1.946-2.457-0.95-6.032,0.152-8.965
				c2.532-6.736,5.194-13.472,6.553-20.538c1.359-7.066,1.346-14.579-1.374-21.241c-4.347-10.643-15.453-17.759-26.911-18.702
				c-11.457-0.943-22.96,3.753-31.587,11.352c-6.357,5.599-9.559,14.231-9.381,22.701c0.178,8.47,3.377,16.747,8.42,23.553
				c1.578,2.13,3.359,4.17,4.337,6.634c0.979,2.463,0.983,5.535-0.791,7.504c-1.757,1.95-4.627,2.271-7.17,2.921
				c-8.789,2.247-15.793,10.274-16.828,19.287c-1.035,9.013,3.966,18.418,12.016,22.6c3.812,1.98,8.105,2.833,12.045,4.543
				c3.94,1.71,7.755,4.645,8.727,8.829c1.536,6.612-4.381,12.35-7.001,18.612c-1.308,3.125-1.799,6.521-2.279,9.875
				c-0.704,4.92-1.376,10.12,0.525,14.712c2.445,5.904,8.5,9.357,14.214,12.216c6.067,3.036,12.219,5.901,18.448,8.591
				L1535.253,704.598z"/>
		</g>
		<rect x="138.125" y="1724.763" style="fill:#CECED2;" width="1723.75" height="5"/>
	</g>
</g>
</svg>
